<?xml version="1.0" encoding="utf-8"?>
<svg viewBox="0 0 90 90" xmlns="http://www.w3.org/2000/svg">
  <g transform="matrix(1, 0, 0, 1, 1.3322676295501878e-15, 5.551115123125783e-17)">
    <g>
      <path d="M45,85C23,85,5,67.1,5,45S23,5,45,5c22,0,40,17.9,40,40S67,85,45,85z M45,7C24.1,7,7,24,7,45s17,38,38,38&#10;&#9;&#9;&#9;c20.9,0,38-17,38-38S65.9,7,45,7z" style="fill: rgb(34, 34, 34);"/>
    </g>
    <path d="M 24.322 29.633 C 24.722 26.454 28.866 22.119 32.15 22.6 L 32.149 22.596 C 35.343 23.204 37.877 28.708 39.3 31.182 C 40.315 32.979 39.655 34.798 38.714 35.565 C 37.442 36.589 35.448 38.005 35.866 39.427 C 36.609 41.951 45.423 50.765 49.758 53.269 C 51.398 54.219 52.588 51.718 53.604 50.44 C 54.34 49.448 56.162 48.862 57.954 49.836 C 60.63 51.393 63.151 53.203 65.482 55.24 C 66.645 56.215 66.92 57.653 66.11 59.17 C 64.69 61.851 60.579 65.381 57.599 64.662 C 52.39 63.409 31.322 55.24 24.554 31.581 C 24.178 30.462 24.273 30.041 24.322 29.633 Z" style="fill: rgb(34, 34, 34);"/>
  </g>
</svg>