<?xml version="1.0" encoding="utf-8"?>
<svg viewBox="0 0 90 90" xmlns="http://www.w3.org/2000/svg">
  <g transform="matrix(1, 0, 0, 1, 1.7763568394002505e-15, 0)">
    <g>
      <path d="M45,85C23,85,5,67.1,5,45S23,5,45,5c22,0,40,17.9,40,40S67,85,45,85z M45,7C24.1,7,7,24,7,45s17,38,38,38&#10;&#9;&#9;&#9;c20.9,0,38-17,38-38S65.9,7,45,7z" style="fill: rgb(7, 94, 84);"/>
    </g>
    <path d="M 37.232 38.364 C 37.396 37.062 39.092 35.288 40.437 35.485 L 40.436 35.483 C 41.744 35.732 42.781 37.985 43.364 38.998 C 43.779 39.733 43.509 40.478 43.124 40.792 C 42.603 41.211 41.787 41.791 41.958 42.373 C 42.262 43.406 45.87 47.014 47.645 48.039 C 48.316 48.428 48.803 47.404 49.219 46.881 C 49.52 46.475 50.266 46.235 51 46.634 C 52.095 47.271 53.127 48.012 54.081 48.846 C 54.557 49.245 54.67 49.834 54.338 50.455 C 53.757 51.552 52.074 52.997 50.854 52.703 C 48.722 52.19 40.098 48.846 37.327 39.161 C 37.173 38.703 37.212 38.531 37.232 38.364 Z" style="fill: rgb(7, 94, 84);"/>
    <path fill-rule="evenodd" clip-rule="evenodd" d="M 45.87 60.001 C 44.105 60.001 43.128 59.812 41.54 59.281 L 38.503 60.8 C 36.584 61.759 34.324 60.364 34.324 58.218 L 34.324 54.951 C 31.219 52.053 29.996 48.713 29.996 44.128 C 29.996 35.362 37.104 28.255 45.87 28.255 C 54.636 28.255 61.743 35.362 61.743 44.128 C 61.743 52.894 54.636 60.001 45.87 60.001 Z M 37.212 53.697 L 36.293 52.84 C 33.879 50.588 32.882 48.072 32.882 44.128 C 32.882 36.956 38.697 31.141 45.87 31.141 C 53.043 31.141 58.858 36.956 58.858 44.128 C 58.858 51.302 53.043 57.116 45.87 57.116 C 44.447 57.116 43.78 56.987 42.459 56.543 L 41.322 56.162 L 37.212 58.218 L 37.212 53.697 Z" style="fill: rgb(7, 94, 84);"/>
  </g>
</svg>