<?xml version="1.0" encoding="utf-8"?>
<svg viewBox="0 0 595.3 841.9" xmlns="http://www.w3.org/2000/svg">
  <path d="M 297.6 156.4 C 152.1 156.4 33 274.8 33 421 C 33 567.2 152.1 685.6 297.6 685.6 C 443.1 685.6 562.2 567.2 562.2 421 C 562.2 274.8 443.2 156.4 297.6 156.4 Z M 348.6 346.9 L 327.4 346.9 C 312.2 346.9 190.169 338.412 190.169 348.312 L 348.6 382 L 344 421 L 310.9 421 L 310.9 534 L 362.714 535.61 L 349.836 422.51 L 371.419 401.583 L 236.2 381.2 L 232.324 421.444 L 365.934 527.124 C 365.934 496.024 312.224 433.361 352.524 433.361 L 348.6 307.8 L 348.6 346.9 Z" style="fill: rgb(7, 94, 84);" transform="matrix(1, 0, 0, 1, -1.4210854715202004e-14, -1.4210854715202004e-14)"/>
  <path d="M 240.201 381.091 C 241.342 372.127 252.981 359.953 262.222 361.301 L 262.213 361.291 C 271.205 362.996 278.323 378.472 282.338 385.432 C 285.184 390.488 283.33 395.605 280.683 397.767 C 277.104 400.65 271.501 404.627 272.683 408.623 C 274.765 415.731 299.549 440.518 311.744 447.557 C 316.355 450.223 319.707 443.195 322.561 439.586 C 324.635 436.819 329.759 435.164 334.797 437.901 C 342.321 442.283 349.41 447.367 355.964 453.109 C 359.236 455.846 360.009 459.891 357.739 464.163 C 353.743 471.69 342.194 481.613 333.794 479.602 C 319.152 476.08 259.892 453.109 240.865 386.563 C 239.794 383.41 240.063 382.22 240.201 381.091 Z" style="fill: rgb(255, 255, 255);" transform="matrix(1, 0, 0, 1, -1.4210854715202004e-14, -1.4210854715202004e-14)"/>
  <path fill-rule="evenodd" clip-rule="evenodd" d="M 299.549 529.748 C 287.425 529.748 280.712 528.439 269.807 524.791 L 248.937 535.229 C 235.75 541.814 220.234 532.226 220.234 517.493 L 220.234 495.048 C 198.888 475.139 190.491 452.178 190.491 420.689 C 190.491 360.457 239.32 311.628 299.549 311.628 C 359.781 311.628 408.61 360.457 408.61 420.689 C 408.61 480.919 359.781 529.748 299.549 529.748 Z M 240.063 486.421 L 233.758 480.542 C 217.172 465.076 210.32 447.784 210.32 420.689 C 210.32 371.404 250.275 331.458 299.549 331.458 C 348.834 331.458 388.782 371.404 388.782 420.689 C 388.782 469.963 348.834 509.919 299.549 509.919 C 289.785 509.919 285.193 509.037 276.113 505.993 L 268.31 503.365 L 240.063 517.493 L 240.063 486.421 Z" style="fill: rgb(255, 255, 255);" transform="matrix(1, 0, 0, 1, -1.4210854715202004e-14, -1.4210854715202004e-14)"/>
</svg>